<svg width="32" height="32" viewBox="0 0 32 32" fill="none" xmlns="http://www.w3.org/2000/svg">
<g>
<path d="M11.1997 11.3008L20.7997 20.7008" stroke="currentColor" stroke-width="1.5" stroke-linecap="round" stroke-linejoin="round"/>
<path d="M11.1997 20.7008L20.7997 11.3008" stroke="currentColor" stroke-width="1.5" stroke-linecap="round" stroke-linejoin="round"/>
<path d="M8.9999 12.6004C10.1597 12.6004 11.0999 11.6602 11.0999 10.5004C11.0999 9.34059 10.1597 8.40039 8.9999 8.40039C7.8401 8.40039 6.8999 9.34059 6.8999 10.5004C6.8999 11.6602 7.8401 12.6004 8.9999 12.6004Z" fill="currentColor" fill-opacity=".3" stroke="currentColor" stroke-width="1.5" stroke-linecap="round" stroke-linejoin="round"/>
<path d="M8.9999 23.6004C10.1597 23.6004 11.0999 22.6602 11.0999 21.5004C11.0999 20.3406 10.1597 19.4004 8.9999 19.4004C7.8401 19.4004 6.8999 20.3406 6.8999 21.5004C6.8999 22.6602 7.8401 23.6004 8.9999 23.6004Z" stroke="currentColor" stroke-width="1.5" stroke-linecap="round" stroke-linejoin="round"/>
<path d="M22.9999 12.6004C24.1597 12.6004 25.0999 11.6602 25.0999 10.5004C25.0999 9.34059 24.1597 8.40039 22.9999 8.40039C21.8401 8.40039 20.8999 9.34059 20.8999 10.5004C20.8999 11.6602 21.8401 12.6004 22.9999 12.6004Z" stroke="currentColor" stroke-width="1.5" stroke-linecap="round" stroke-linejoin="round"/>
<path d="M22.9999 23.6004C24.1597 23.6004 25.0999 22.6602 25.0999 21.5004C25.0999 20.3406 24.1597 19.4004 22.9999 19.4004C21.8401 19.4004 20.8999 20.3406 20.8999 21.5004C20.8999 22.6602 21.8401 23.6004 22.9999 23.6004Z" fill="currentColor" fill-opacity=".3" stroke="currentColor" stroke-width="1.5" stroke-linecap="round" stroke-linejoin="round"/>
</g>
</svg>
